<svg width="32" height="32" viewBox="0 0 32 32" fill="none" xmlns="http://www.w3.org/2000/svg">
<rect width="32" height="32" fill="white"/>
<path d="M2.59938 27V4.12H6.37538L16.6154 4.088C20.754 4.088 23.9647 5.05867 26.2474 7C28.53 8.94133 29.6714 11.7893 29.6714 15.544C29.6714 19.2987 28.53 22.1467 26.2474 24.088C23.9647 26.0293 20.754 27 16.6154 27H2.59938ZM16.2634 8.248H7.71938V22.84H16.2634C18.9514 22.84 20.9887 22.2533 22.3754 21.08C23.762 19.9067 24.4554 18.0613 24.4554 15.544C24.4554 13.0053 23.762 11.16 22.3754 10.008C20.9887 8.83467 18.9514 8.248 16.2634 8.248Z" fill="#CE5FF8"/>
</svg>
