<svg width="57" height="25" viewBox="0 0 57 25" fill="none" xmlns="http://www.w3.org/2000/svg">
<path d="M0.45875 24V1.12H4.23475L14.4748 1.088C18.6134 1.088 21.8241 2.05867 24.1068 4C26.3894 5.94133 27.5308 8.78933 27.5308 12.544C27.5308 16.2987 26.3894 19.1467 24.1068 21.088C21.8241 23.0293 18.6134 24 14.4748 24H0.45875ZM14.1228 5.248H5.57875V19.84H14.1228C16.8108 19.84 18.8481 19.2533 20.2348 18.08C21.6214 16.9067 22.3148 15.0613 22.3148 12.544C22.3148 10.0053 21.6214 8.16 20.2348 7.008C18.8481 5.83467 16.8108 5.248 14.1228 5.248ZM42.501 24.16C38.597 24.16 35.5463 23.1893 33.349 21.248C31.173 19.2853 30.085 16.384 30.085 12.544C30.085 8.72533 31.1943 5.84533 33.413 3.904C35.653 1.94133 38.8957 0.959999 43.141 0.959999H55.301V5.12H43.493C40.6983 5.12 38.629 5.70667 37.285 6.88C35.9623 8.05333 35.301 9.94133 35.301 12.544C35.301 15.0187 35.8877 16.8533 37.061 18.048C38.2343 19.2213 39.9517 19.8613 42.213 19.968V11.072H56.549V24.16H42.501ZM47.013 20H51.429V15.232H47.013V20Z" fill="#CE5FF8"/>
</svg>
